<?xml version="1.0" encoding="UTF-8" standalone="no"?>
<!-- Created with Inkscape (http://www.inkscape.org/) -->

<svg
   xmlns:dc="http://purl.org/dc/elements/1.1/"
   xmlns:cc="http://creativecommons.org/ns#"
   xmlns:rdf="http://www.w3.org/1999/02/22-rdf-syntax-ns#"
   xmlns:svg="http://www.w3.org/2000/svg"
   xmlns="http://www.w3.org/2000/svg"
   xmlns:sodipodi="http://sodipodi.sourceforge.net/DTD/sodipodi-0.dtd"
   xmlns:inkscape="http://www.inkscape.org/namespaces/inkscape"
   width="1000"
   height="1000"
   id="svg2"
   version="1.1"
   inkscape:version="0.48.0 r9654"
   sodipodi:docname="tae kwon do.svg">
  <defs
     id="defs4" />
  <sodipodi:namedview
     id="base"
     pagecolor="#ffffff"
     bordercolor="#666666"
     borderopacity="1.0"
     inkscape:pageopacity="0.0"
     inkscape:pageshadow="2"
     inkscape:zoom="0.59"
     inkscape:cx="500"
     inkscape:cy="500"
     inkscape:document-units="px"
     inkscape:current-layer="layer1"
     showgrid="false"
     fit-margin-top="0"
     fit-margin-left="0"
     fit-margin-right="0"
     fit-margin-bottom="0"
     inkscape:window-width="1152"
     inkscape:window-height="807"
     inkscape:window-x="-4"
     inkscape:window-y="-4"
     inkscape:window-maximized="1" />
  <metadata
     id="metadata7">
    <rdf:RDF>
      <cc:Work
         rdf:about="">
        <dc:format>image/svg+xml</dc:format>
        <dc:type
           rdf:resource="http://purl.org/dc/dcmitype/StillImage" />
        <dc:title></dc:title>
      </cc:Work>
    </rdf:RDF>
  </metadata>
  <g
     inkscape:label="Capa 1"
     inkscape:groupmode="layer"
     id="layer1"
     transform="translate(-103.91786,-226.22482)">
    <g
       id="g3768">
      <rect
         y="226.22482"
         x="103.91786"
         height="1000"
         width="1000"
         id="rect3766"
         style="fill:#ffffff;fill-opacity:1;stroke:none" />
      <path
         sodipodi:nodetypes="csssssssssscsssccssscccssssssssssssssssssssssccsscsssscscsssssssssssssssssssssssscsssssssssssssccsssssccscsssssscc"
         inkscape:connector-curvature="0"
         id="path2996"
         d="m 499.74466,1022.6607 c -7.32618,13.6457 -13.1538,27.5283 -13.73915,41.9669 0,0 2.80462,13.4456 -0.74941,18.4854 -3.72487,5.282 -11.59098,6.3058 -17.98579,7.2442 -9.0177,1.3234 -16.60768,-4.0445 -29.22691,-3.2474 -16.0517,1.014 -17.10213,5.1184 -25.72967,6.4949 -6.52144,1.0404 -15.71988,1.844 -22.23244,0.7494 -5.21935,-0.8773 -9.61985,-0.7637 -11.99052,-5.4957 -2.21693,-4.425 -1.3825,-9.6249 1.99842,-13.2395 5.21937,-5.5802 14.58001,-6.5562 23.23164,-7.7439 10.26146,-1.4086 19.61201,-7.2407 28.2277,-12.9897 19.75803,-13.1841 28.95642,-41.1565 27.7281,-40.7179 9.02865,-23.22241 7.09288,-51.91919 9.9921,-80.1866 2.17022,-21.15961 13.47466,-26.91882 20.23402,-31.47514 6.07904,-4.09773 -0.7171,-22.11819 1.20542,-32.07957 2.38259,-12.34512 13.53293,-13.1347 13.53293,-13.1347 0.46657,-3.9868 0.12673,-8.13488 3.74704,-11.49093 -1.89834,-29.53491 -4.59299,-59.58195 3.49724,-83.43408 2.70018,-7.96085 -3.52884,-5.95014 -5.74546,-4.74625 -34.09339,18.51688 -45.92419,-2.79052 -52.45856,-12.49013 -2.66193,-3.95137 -3.76824,-3.72584 -7.24427,-3.99685 -9.33345,1.20464 -16.06167,1.29276 -20.73362,0.49961 -1.57054,2.75168 -4.17498,5.15872 -7.74389,7.24428 -1.40684,7.16101 -4.91666,15.23608 -10.74151,21.48302 0,0 -12.32297,11.64168 -17.23638,18.4854 -3.47651,4.84231 -4.52392,11.2903 -8.49329,15.73757 -7.5676,8.4787 -16.80407,17.41039 -27.9779,19.4846 -10.6231,1.97198 -22.27619,-2.07655 -31.47513,-7.74388 -8.39689,-5.1732 -12.72465,-15.07361 -19.2348,-22.48224 -3.03548,-3.45442 -4.92639,-8.65553 -9.2427,-10.24191 -11.37848,-4.18194 -4.72598,-10.43467 -3.74704,-15.73756 1.11493,-6.03953 0.99607,-9.74825 -0.2498,-15.23796 -1.86577,-8.22114 -7.35861,-15.80144 -7.24428,-24.23086 0.0868,-6.39802 6.21674,-11.84081 5.99526,-18.23559 -0.084,-2.42619 -2.58809,-4.32229 -2.74783,-6.74468 -0.13023,-1.97496 1.58407,-3.76805 1.49882,-5.74546 -0.28927,-6.70959 -6.38093,-12.27903 -6.74467,-18.985 -0.54695,-10.08358 3.6057,-19.96388 6.99447,-29.47671 2.04955,-5.75339 3.54563,-12.30165 7.99369,-16.48697 1.1149,-1.04905 3.37974,-0.48688 4.24664,-1.74862 1.98101,-2.88326 -1.90252,-7.73397 0.2498,-10.49171 1.54121,-1.97472 5.31653,-0.39887 7.24428,-1.99843 3.20979,-2.66334 2.27016,-8.59683 5.49566,-11.24111 1.26515,-1.03717 3.52945,-0.15553 4.74625,-1.24902 1.39179,-1.25073 0.77702,-3.82826 1.99842,-5.24585 0.99777,-1.15804 3.99684,-2.24823 3.99684,-2.24823 1.34483,-5.91199 -0.004,-11.82399 -1.24901,-17.73598 -6.19678,3.77405 -8.47597,-0.74683 -11.74072,-3.74704 -2.67541,-2.45862 -4.22701,-4.13818 -5.99527,-6.49487 -11.90631,-15.8684 -5.33557,-20.75241 -1.49881,-19.98422 0,0 -14.30736,-25.93111 -13.48935,-39.96842 0.49838,-8.55234 4.86435,-17.24406 10.99132,-23.23164 8.9309,-8.72772 21.73734,-15.02985 34.22296,-15.23797 15.27492,-0.25461 30.09162,8.27807 42.46645,17.23639 4.83063,3.49696 16.67913,26.9787 15.23796,39.46881 0,0 -0.0463,6.64981 0.99921,9.74231 0.96968,2.86806 4.74625,7.74388 4.74625,7.74388 0,0 12.44472,-11.24535 20.23402,-13.48934 5.92315,-1.70638 12.96691,3.24585 18.48539,0.4996 2.5651,-1.27651 2.42169,-5.73674 4.99606,-6.99447 10.78286,-5.26805 25.18097,6.75095 35.97158,1.49881 2.95048,-1.43609 3.02231,-6.16279 5.74546,-7.99368 3.83808,-2.5805 8.8653,-3.15761 13.48934,-3.24744 2.12252,-0.0412 4.24321,1.95565 6.24507,1.24902 1.83977,-0.64941 1.83735,-4.09698 3.74704,-4.49645 3.4627,-0.72432 6.11323,3.6996 9.4925,4.74625 4.65698,1.44239 9.70199,1.07279 14.48855,1.99842 3.03369,0.58666 5.90687,2.40257 8.9929,2.24823 14.7575,-0.73805 26.99115,-16.20338 41.71704,-14.98816 6.46435,0.53346 11.29499,6.38153 16.98658,9.4925 4.80512,2.62643 10.37092,4.13384 14.48855,7.74388 4.08321,3.57987 5.12155,10.01729 9.4925,13.23954 5.29868,3.90618 12.23819,7.30488 18.7352,6.24507 9.97683,-1.62745 15.52797,-13.09308 24.23086,-18.2356 5.42273,-3.20428 12.05149,-4.16752 17.23638,-7.74388 1.9387,-1.33725 2.95254,-3.82522 4.99605,-4.99605 1.71734,-0.98395 4.25965,-0.19123 5.74546,-1.49882 5.52519,-4.86247 3.7744,-14.63586 8.24349,-20.48382 6.27966,-8.21716 18.28487,-10.64753 24.73046,-18.73519 5.17975,-6.49935 3.61039,-17.72262 10.24191,-22.73204 32.24473,-24.35753 104.82156,-67.93097 106.16613,-70.69415 1.48959,-3.06121 6.88343,0.88804 11.49092,11.24112 0,0 6.59282,-5.21403 9.7423,-7.99369 3.35616,-2.96208 5.83439,-7.05959 9.7423,-9.2427 5.94223,-3.31956 13.88339,-1.76805 19.73441,-5.24585 6.27286,-3.72854 15.07763,-13.72387 23.23165,-8.7431 10.87592,6.6434 10.84285,22.3217 11.49092,31.97474 0.3819,5.68844 -1.155,11.34807 -1.99842,16.98658 -0.55089,3.68287 -0.71236,7.49661 -1.99842,10.99132 -2.00366,5.4447 -6.46863,7.56637 -13.48934,10.24191 -1.87855,0.7159 -1.99908,5.29433 -6.49487,4.74625 -4.86827,-0.59349 -11.48732,-4.59437 -11.24112,-9.4925 0.24132,-4.80108 6.54248,-2.59307 5.24585,-4.49645 -1.87496,-2.75233 1.66455,-5.31119 0.74941,-6.49487 -1.84515,-2.38661 -6.57746,-3.95254 -10.24191,-3.99684 -8.05961,-0.0974 -22.73204,8.24349 -22.73204,8.24349 1.83246,6.82726 7.7941,8.83716 5.49566,20.48381 -17.80517,19.02436 -20.72478,11.90119 -27.9779,20.73362 0,0 -19.95337,25.75309 -30.97552,37.7202 -15.23939,16.5459 -33.0951,30.53509 -48.46172,46.9629 -14.16595,15.14422 -25.49064,32.86388 -40.21822,47.4625 -13.31117,13.19461 -35.03335,19.10945 -43.21586,35.97158 -10.81573,22.28856 -42.72474,50.60676 -44.71468,47.71231 -2.98471,8.93547 -5.91391,17.98196 -8.24348,28.2277 0,0 7.36919,15.19223 6.74467,23.23165 -2.28782,29.45096 -25.47987,49.46092 -25.47987,49.46092 0,0 -9.3227,33.07622 -14.48855,49.46092 -3.83221,12.15475 -9.48811,23.77755 -12.24033,36.22139 -1.6462,7.44309 -0.50481,15.37428 -2.49803,22.73204 -1.54967,5.72045 -5.4749,10.58082 -7.24428,16.23717 -2.2769,7.27879 -2.83612,14.98721 -4.24664,22.48224 -1.00278,5.32845 -2.88274,10.5666 -2.99763,15.98737 -0.5746,27.11182 -1.39799,86.03145 -2.74783,86.93135 -21.57127,0.8867 -42.20638,-0.5669 -62.45066,-2.9977 z"
         style="fill:#000000;fill-opacity:1;stroke:none" />
    </g>
    <path
       id="path3789"
       style="font-size:10.46765423px;font-style:normal;font-variant:normal;font-weight:300;font-stretch:normal;line-height:125%;letter-spacing:0px;word-spacing:0px;fill:#000000;fill-opacity:1;stroke:none;font-family:Perpetua Titling MT;-inkscape-font-specification:Perpetua Titling MT Light"
       d="m 1089.7858,1198.7987 2.254,6.4503 c 0.1193,0.3339 0.2317,0.5758 0.3373,0.7258 0.1057,0.1499 0.207,0.2444 0.3041,0.2836 0.097,0.039 0.2207,0.066 0.3706,0.079 l 0,0.082 -2.4585,0 0,-0.082 c 0.2522,0 0.4464,-0.024 0.5827,-0.072 0.1363,-0.048 0.2045,-0.1772 0.2045,-0.3884 0,-0.1159 -0.032,-0.2709 -0.097,-0.4652 -0.014,-0.027 -0.02,-0.048 -0.02,-0.061 l -0.6696,-1.9985 -2.6067,0 -0.598,1.8503 c -0.082,0.2521 -0.1226,0.4549 -0.1226,0.6082 0,0.2113 0.053,0.3518 0.1584,0.4217 0.1056,0.07 0.2556,0.1048 0.4498,0.1048 l 0,0.082 -1.7685,0 0,-0.082 c 0.2522,-0.024 0.4541,-0.1202 0.6057,-0.2888 0.1516,-0.1687 0.2837,-0.4251 0.3961,-0.7693 l 2.1263,-6.4809 z m -1.7123,4.2831 2.3972,0 -1.2267,-3.5727 -0.02,0 z m -2.208,-4.1911 0,0.087 c -0.2249,0 -0.4251,0.056 -0.6005,0.1584 -0.1755,0.1023 -0.3127,0.2087 -0.4115,0.3195 -0.099,0.1107 -0.2044,0.2445 -0.3169,0.4012 l -1.7582,2.6476 0,3.0156 c 0,0.2692 0.081,0.471 0.2428,0.6056 0.1618,0.1346 0.3569,0.2053 0.5852,0.2122 l 0,0.082 -2.3869,0 0,-0.082 c 0.2419,-0.01 0.4336,-0.076 0.575,-0.207 0.1414,-0.1312 0.2121,-0.3348 0.2121,-0.6108 l 0,-2.8878 -1.9167,-2.8725 c -0.2044,-0.3101 -0.3876,-0.5162 -0.5494,-0.6185 -0.1619,-0.1022 -0.3808,-0.1567 -0.6568,-0.1635 l 0,-0.087 2.6731,0 0,0.087 c -0.2726,0.01 -0.4472,0.069 -0.5239,0.1763 -0.077,0.1074 -0.115,0.2087 -0.115,0.3041 0,0.1091 0.067,0.2624 0.1994,0.46 l 1.5691,2.3256 1.3902,-2.0956 c 0.2113,-0.3134 0.3169,-0.5537 0.3169,-0.7206 0,-0.1159 -0.028,-0.2062 -0.084,-0.2709 -0.056,-0.065 -0.1133,-0.1074 -0.1713,-0.1278 -0.058,-0.02 -0.1192,-0.038 -0.184,-0.051 l 0,-0.087 z m -7.4163,0 0,0.087 c -0.1908,0.024 -0.3416,0.061 -0.4523,0.1099 -0.1108,0.049 -0.1968,0.1465 -0.2581,0.2913 -0.061,0.1448 -0.092,0.3535 -0.092,0.6261 l 0,6.6036 -0.051,0 -5.7808,-6.4502 0,4.6307 c 0,0.385 0.015,0.6712 0.046,0.8586 0.031,0.1875 0.075,0.3221 0.1329,0.4038 0.1261,0.1772 0.3459,0.2726 0.6594,0.2863 l 0,0.082 -1.886,0 0,-0.082 c 0.2112,-0.01 0.3756,-0.055 0.4932,-0.1355 0.1175,-0.08 0.201,-0.2266 0.2504,-0.4396 0.049,-0.2129 0.074,-0.5341 0.074,-0.9634 l 0,-4.9118 -0.2504,-0.2811 c -0.2215,-0.2522 -0.3987,-0.4115 -0.5316,-0.4779 -0.1329,-0.067 -0.2981,-0.1167 -0.4958,-0.1508 l 0,-0.087 1.4158,0 5.6939,6.3787 0,-4.8607 c 0,-0.3646 -0.014,-0.6372 -0.043,-0.8178 -0.029,-0.1806 -0.1056,-0.3254 -0.23,-0.4344 -0.1244,-0.1091 -0.3194,-0.1687 -0.5852,-0.1789 l 0,-0.087 z m -13.1408,0.087 0,-0.087 4.4876,0 0,1.1858 -0.072,0 c 0,-0.6338 -0.4226,-0.9507 -1.2676,-0.9507 l -1.5691,0 0,3.4194 1.38,0 c 0.2726,0 0.5162,-0.044 0.7309,-0.1329 0.2147,-0.089 0.3373,-0.2913 0.368,-0.6082 l 0.077,0 0,1.7071 -0.077,0 c -0.031,-0.1942 -0.089,-0.3433 -0.1738,-0.4472 -0.085,-0.104 -0.1695,-0.173 -0.253,-0.207 -0.084,-0.034 -0.1576,-0.051 -0.2223,-0.051 -0.1227,-0.02 -0.2505,-0.031 -0.3834,-0.031 l -1.4464,0 0,2.6731 c 0,0.2011 0.038,0.3748 0.115,0.5214 0.077,0.1465 0.2547,0.2197 0.5341,0.2197 l 1.1193,0 c 0.2692,0 0.4907,-0.039 0.6645,-0.1175 0.1738,-0.078 0.3109,-0.1874 0.4114,-0.3271 0.1006,-0.1397 0.1849,-0.3084 0.253,-0.506 l 0.072,0 -0.2607,1.1806 -4.4876,0 0,-0.082 0.1023,0 c 0.1601,0 0.3168,-0.065 0.4702,-0.1943 0.1533,-0.1295 0.23,-0.3407 0.23,-0.6338 l 0,-5.6733 c 0,-0.2317 -0.052,-0.4328 -0.1559,-0.6032 -0.1039,-0.1703 -0.2854,-0.2555 -0.5443,-0.2555 z m -3.1944,7.4418 -2.8163,0 0,-0.082 0.1022,0 c 0.1909,0 0.3553,-0.069 0.4933,-0.207 0.138,-0.138 0.207,-0.345 0.207,-0.6211 l 0,-5.6836 c 0,-0.2691 -0.064,-0.4778 -0.1917,-0.6261 -0.1278,-0.1482 -0.3007,-0.2223 -0.5188,-0.2223 l -0.092,0 0,-0.087 2.4585,0 c 0.3237,0 0.6218,0.047 0.8944,0.1406 0.2726,0.094 0.5035,0.2231 0.6926,0.3884 0.1891,0.1653 0.3348,0.3527 0.437,0.5622 0.1022,0.2096 0.1533,0.437 0.1533,0.6824 0,0.4532 -0.1465,0.8212 -0.4395,1.104 -0.2931,0.2828 -0.6866,0.4907 -1.1807,0.6235 l 0,0.02 c 0.2249,0.024 0.4413,0.06 0.6491,0.1073 0.2079,0.048 0.3953,0.1142 0.5622,0.1994 0.167,0.085 0.3237,0.1959 0.4703,0.3322 0.1329,0.1227 0.2453,0.2572 0.3373,0.4038 0.092,0.1465 0.1619,0.3058 0.2096,0.4779 0.048,0.172 0.072,0.3484 0.072,0.529 0,0.3918 -0.1014,0.7292 -0.3041,1.012 -0.2027,0.2828 -0.4319,0.4975 -0.6874,0.644 -0.3646,0.201 -0.8672,0.3015 -1.5078,0.3015 z m -1.2369,-4.0736 0.4906,0 c 0.4021,0 0.6883,-0.041 0.8587,-0.1226 0.109,-0.054 0.2223,-0.1295 0.3399,-0.2249 0.1176,-0.095 0.23,-0.2454 0.3373,-0.4498 0.1074,-0.2044 0.161,-0.4515 0.161,-0.7411 0,-0.2249 -0.036,-0.4387 -0.1073,-0.6415 -0.072,-0.2027 -0.1755,-0.3824 -0.3118,-0.5392 -0.1363,-0.1567 -0.2981,-0.2794 -0.4855,-0.368 -0.1875,-0.089 -0.3919,-0.1329 -0.6134,-0.1329 -0.1942,0 -0.4174,0.037 -0.6695,0.1125 z m 0.7717,0.23 -0.7717,0 0,2.7141 c 0,0.1806 0.018,0.3313 0.054,0.4523 0.036,0.121 0.1338,0.2257 0.2939,0.3143 0.1602,0.089 0.4072,0.1329 0.7411,0.1329 0.6917,0 1.1841,-0.23 1.4772,-0.69 0.201,-0.3169 0.3015,-0.6729 0.3015,-1.0682 0,-0.2862 -0.05,-0.5452 -0.1508,-0.7769 -0.1005,-0.2317 -0.2385,-0.4251 -0.414,-0.5801 -0.1754,-0.1551 -0.3961,-0.2769 -0.6619,-0.3655 -0.2657,-0.089 -0.5554,-0.1329 -0.8689,-0.1329 z m -6.3276,-3.6851 0,0.087 c -0.2249,0 -0.4251,0.056 -0.6005,0.1584 -0.1755,0.1023 -0.3127,0.2087 -0.4115,0.3195 -0.099,0.1107 -0.2044,0.2445 -0.3169,0.4012 l -1.7582,2.6476 0,3.0156 c 0,0.2692 0.081,0.471 0.2428,0.6056 0.1618,0.1346 0.3569,0.2053 0.5852,0.2122 l 0,0.082 -2.3869,0 0,-0.082 c 0.2419,-0.01 0.4336,-0.076 0.575,-0.207 0.1414,-0.1312 0.2121,-0.3348 0.2121,-0.6108 l 0,-2.8878 -1.9167,-2.8725 c -0.2044,-0.3101 -0.3876,-0.5162 -0.5494,-0.6185 -0.1619,-0.1022 -0.3808,-0.1567 -0.6568,-0.1635 l 0,-0.087 2.6731,0 0,0.087 c -0.2726,0.01 -0.4472,0.069 -0.5239,0.1763 -0.077,0.1074 -0.115,0.2087 -0.115,0.3041 0,0.1091 0.067,0.2624 0.1994,0.46 l 1.5691,2.3256 1.3902,-2.0956 c 0.2113,-0.3134 0.3169,-0.5537 0.3169,-0.7206 0,-0.1159 -0.028,-0.2062 -0.084,-0.2709 -0.056,-0.065 -0.1133,-0.1074 -0.1712,-0.1278 -0.058,-0.02 -0.1193,-0.038 -0.184,-0.051 l 0,-0.087 z m -9.9105,7.5287 -2.8163,0 0,-0.082 0.1023,0 c 0.1908,0 0.3552,-0.069 0.4932,-0.207 0.138,-0.138 0.207,-0.345 0.207,-0.6211 l 0,-5.6836 c 0,-0.2691 -0.064,-0.4778 -0.1917,-0.6261 -0.1278,-0.1482 -0.3007,-0.2223 -0.5188,-0.2223 l -0.092,0 0,-0.087 2.4585,0 c 0.3237,0 0.6219,0.047 0.8945,0.1406 0.2726,0.094 0.5034,0.2231 0.6925,0.3884 0.1891,0.1653 0.3348,0.3527 0.437,0.5622 0.1022,0.2096 0.1534,0.437 0.1534,0.6824 0,0.4532 -0.1466,0.8212 -0.4396,1.104 -0.293,0.2828 -0.6866,0.4907 -1.1807,0.6235 l 0,0.02 c 0.2249,0.024 0.4413,0.06 0.6491,0.1073 0.2079,0.048 0.3953,0.1142 0.5623,0.1994 0.1669,0.085 0.3237,0.1959 0.4702,0.3322 0.1329,0.1227 0.2453,0.2572 0.3373,0.4038 0.092,0.1465 0.1619,0.3058 0.2096,0.4779 0.048,0.172 0.072,0.3484 0.072,0.529 0,0.3918 -0.1013,0.7292 -0.3041,1.012 -0.2027,0.2828 -0.4319,0.4975 -0.6874,0.644 -0.3646,0.201 -0.8672,0.3015 -1.5078,0.3015 z m -1.2369,-4.0736 0.4907,0 c 0.402,0 0.6883,-0.041 0.8586,-0.1226 0.1091,-0.054 0.2224,-0.1295 0.3399,-0.2249 0.1176,-0.095 0.23,-0.2454 0.3374,-0.4498 0.1073,-0.2044 0.161,-0.4515 0.161,-0.7411 0,-0.2249 -0.036,-0.4387 -0.1074,-0.6415 -0.072,-0.2027 -0.1755,-0.3824 -0.3117,-0.5392 -0.1363,-0.1567 -0.2982,-0.2794 -0.4856,-0.368 -0.1874,-0.089 -0.3919,-0.1329 -0.6133,-0.1329 -0.1943,0 -0.4175,0.037 -0.6696,0.1125 z m 0.7718,0.23 -0.7718,0 0,2.7141 c 0,0.1806 0.018,0.3313 0.054,0.4523 0.036,0.121 0.1337,0.2257 0.2939,0.3143 0.1601,0.089 0.4071,0.1329 0.7411,0.1329 0.6917,0 1.1841,-0.23 1.4771,-0.69 0.201,-0.3169 0.3015,-0.6729 0.3016,-1.0682 -10e-5,-0.2862 -0.05,-0.5452 -0.1508,-0.7769 -0.1006,-0.2317 -0.2386,-0.4251 -0.414,-0.5801 -0.1755,-0.1551 -0.3961,-0.2769 -0.6619,-0.3655 -0.2658,-0.089 -0.5554,-0.1329 -0.8689,-0.1329 z" />
  </g>
</svg>
